<?xml version="1.0" encoding="UTF-8" standalone="no"?>
<svg
   xmlns:dc="http://purl.org/dc/elements/1.1/"
   xmlns:cc="http://creativecommons.org/ns#"
   xmlns:rdf="http://www.w3.org/1999/02/22-rdf-syntax-ns#"
   xmlns:svg="http://www.w3.org/2000/svg"
   xmlns="http://www.w3.org/2000/svg"
   viewBox="0 0 671.78668 671.78668"
   height="671.78668"
   width="671.78668"
   xml:space="preserve"
   id="svg2"
   version="1.1"><metadata
     id="metadata8"><rdf:RDF><cc:Work
         rdf:about=""><dc:format>image/svg+xml</dc:format><dc:type
           rdf:resource="http://purl.org/dc/dcmitype/StillImage" /></cc:Work></rdf:RDF></metadata><defs
     id="defs6" /><g
     transform="matrix(1.3333333,0,0,-1.3333333,0,671.78667)"
     id="g10"><g
       transform="scale(0.1)"
       id="g12"><path
         id="path14"
         style="fill:#ffffff;fill-opacity:1;fill-rule:nonzero;stroke:none"
         d="m 2519.2,5038.41 c -684.17,0 -769.96,-2.89 -1038.66,-15.16 -268.15,-12.23 -451.27,-54.82 -611.517,-117.09 C 703.367,4841.78 562.875,4755.64 422.82,4615.59 282.77,4475.54 196.633,4335.04 132.258,4169.39 69.9766,4009.14 27.3945,3826.02 15.1563,3557.87 2.89453,3289.17 0,3203.39 0,2519.21 0,1835.03 2.89453,1749.24 15.1563,1480.54 27.3945,1212.4 69.9766,1029.27 132.258,869.031 196.633,703.379 282.77,562.879 422.82,422.832 562.875,282.77 703.367,196.641 869.023,132.25 1029.27,69.9805 1212.39,27.3906 1480.54,15.1523 1749.24,2.90234 1835.03,0 2519.2,0 c 684.18,0 769.97,2.90234 1038.67,15.1523 268.14,12.2383 451.27,54.8282 611.51,117.0977 165.66,64.391 306.15,150.52 446.2,290.582 140.06,140.047 226.19,280.539 290.58,446.199 62.27,160.239 104.86,343.369 117.1,611.509 12.25,268.7 15.15,354.49 15.15,1038.67 0,684.17 -2.9,769.96 -15.15,1038.66 -12.24,268.15 -54.83,451.27 -117.1,611.52 -64.39,165.65 -150.52,306.15 -290.58,446.2 -140.05,140.05 -280.54,226.19 -446.2,290.57 -160.24,62.27 -343.37,104.86 -611.51,117.09 -268.7,12.27 -354.49,15.16 -1038.67,15.16 z m 0,-453.91 c 672.66,0 752.34,-2.57 1017.97,-14.68 245.63,-11.21 379.02,-52.25 467.79,-86.75 117.58,-45.69 201.51,-100.29 289.66,-188.44 88.16,-88.16 142.75,-172.08 188.45,-289.67 34.49,-88.77 75.54,-222.16 86.74,-467.78 12.12,-265.64 14.69,-345.32 14.69,-1017.97 0,-672.66 -2.57,-752.34 -14.69,-1017.97 -11.2,-245.63 -52.25,-379.02 -86.74,-467.79 C 4437.37,915.871 4382.78,831.941 4294.62,743.789 4206.47,655.629 4122.54,601.039 4004.96,555.34 3916.19,520.852 3782.8,479.801 3537.17,468.602 3271.58,456.48 3191.91,453.91 2519.2,453.91 c -672.7,0 -752.36,2.57 -1017.97,14.692 -245.62,11.199 -379.01,52.25 -467.78,86.738 -117.591,45.699 -201.512,100.289 -289.661,188.449 -88.152,88.152 -142.754,172.082 -188.453,289.661 -34.496,88.77 -75.531,222.16 -86.742,467.78 -12.117,265.64 -14.684,345.32 -14.684,1017.98 0,672.65 2.567,752.33 14.684,1017.97 11.211,245.62 52.246,379.01 86.742,467.78 45.699,117.59 100.301,201.51 188.449,289.66 88.153,88.16 172.074,142.76 289.665,188.45 88.77,34.5 222.16,75.54 467.78,86.75 265.64,12.11 345.32,14.68 1017.97,14.68" /><path
         id="path16"
         style="fill:#ffffff;fill-opacity:1;fill-rule:nonzero;stroke:none"
         d="m 2519.2,1679.47 c -463.77,0 -839.73,375.97 -839.73,839.74 0,463.77 375.96,839.73 839.73,839.73 463.77,0 839.74,-375.96 839.74,-839.73 0,-463.77 -375.97,-839.74 -839.74,-839.74 z m 0,2133.38 c -714.46,0 -1293.64,-579.18 -1293.64,-1293.64 0,-714.47 579.18,-1293.65 1293.64,-1293.65 714.47,0 1293.65,579.18 1293.65,1293.65 0,714.46 -579.18,1293.64 -1293.65,1293.64" /><path
         id="path18"
         style="fill:#ffffff;fill-opacity:1;fill-rule:nonzero;stroke:none"
         d="m 4166.26,3863.96 c 0,-166.96 -135.34,-302.3 -302.3,-302.3 -166.95,0 -302.3,135.34 -302.3,302.3 0,166.96 135.35,302.31 302.3,302.31 166.96,0 302.3,-135.35 302.3,-302.31" /></g></g></svg>